<?xml version="1.0" encoding="UTF-8" standalone="no"?> <svg id="Layer_1" data-name="Layer 1" xmlns="http://www.w3.org/2000/svg" viewBox="0 0 64 64"><title>beer</title><path d="M50,61H22a5,5,0,0,1-5-5V18a1,1,0,0,1,1-1h.35a1,1,0,0,1,.95.68,4.79,4.79,0,0,0,1.16,1.85A5,5,0,0,0,24,21a4.69,4.69,0,0,0,1.8-.34,1,1,0,0,1,1.34,1.17A5.13,5.13,0,0,0,27,23a5,5,0,0,0,9.72,1.65,1,1,0,0,1,.62-.62,1,1,0,0,1,.88.12A4.9,4.9,0,0,0,41,25a1,1,0,0,1,1,1v6.88a1.09,1.09,0,0,0,.82,1.1,1,1,0,0,0,.82-.22A1,1,0,0,0,44,33V24.46a1,1,0,0,1,.34-.75l.2-.18a5.1,5.1,0,0,0,1.22-2,1,1,0,0,1,1.16-.67,5,5,0,0,0,4.61-1.34,4.81,4.81,0,0,0,1.17-1.86,1,1,0,0,1,.95-.68H54a1,1,0,0,1,1,1V56A5,5,0,0,1,50,61ZM19,20.9V56a3,3,0,0,0,3,3H50a3,3,0,0,0,3-3V20.9l-.06.05a7,7,0,0,1-5.6,2A6.91,6.91,0,0,1,46,24.89V33a3,3,0,0,1-1.07,2.29,3,3,0,0,1-2.44.67A3.1,3.1,0,0,1,40,32.88v-6a6.71,6.71,0,0,1-1.87-.55A7,7,0,0,1,32,30a7,7,0,0,1-7-7v-.07A6.63,6.63,0,0,1,24,23a6.89,6.89,0,0,1-4.95-2.06Z"/><path d="M18,51H10a7,7,0,0,1-7-7V32a7,7,0,0,1,7-7h8a1,1,0,0,1,1,1V50A1,1,0,0,1,18,51ZM10,27a5,5,0,0,0-5,5V44a5,5,0,0,0,5,5h7V27Z"/><path d="M43,36a3,3,0,0,1-3-3V26.93a6.71,6.71,0,0,1-1.87-.55A7,7,0,0,1,32,30a7,7,0,0,1-7-7v-.07A6.63,6.63,0,0,1,24,23a6.89,6.89,0,0,1-4.95-2.06,6.72,6.72,0,0,1-1.65-2.62A7,7,0,0,1,24,9a7,7,0,0,1,2.63.51c.13-.15.27-.31.42-.46a7.38,7.38,0,0,1,1.22-1,6.77,6.77,0,0,1,1.79-3,7,7,0,0,1,9.89,0,6.74,6.74,0,0,1,1.44,2.08A7,7,0,0,1,45,9.06q.22.22.42.45A7,7,0,0,1,53,11.06a6.95,6.95,0,0,1,1.64,7.28A6.67,6.67,0,0,1,52.94,21a7,7,0,0,1-5.6,2A6.91,6.91,0,0,1,46,24.89V33A3,3,0,0,1,43,36ZM37.66,24a1,1,0,0,1,.56.17A4.9,4.9,0,0,0,41,25a1,1,0,0,1,1,1v7a1,1,0,0,0,2,0V24.46a1,1,0,0,1,.34-.75l.2-.18a5.1,5.1,0,0,0,1.22-2,1,1,0,0,1,1.16-.67,5,5,0,0,0,4.61-1.34,4.81,4.81,0,0,0,1.17-1.86A4.88,4.88,0,0,0,53,16a5,5,0,0,0-5-5,5,5,0,0,0-2.46.64,1,1,0,0,1-1.34-.34,4.6,4.6,0,0,0-.67-.83,5,5,0,0,0-3-1.44,1,1,0,0,1-.84-.66,4.8,4.8,0,0,0-1.18-1.9,5,5,0,0,0-7.07,0,4.88,4.88,0,0,0-1.35,2.46,1,1,0,0,1-.5.68,5.15,5.15,0,0,0-1.82,1.7,1,1,0,0,1-1.34.34A5,5,0,0,0,24,11a5,5,0,0,0-4.71,6.66,4.86,4.86,0,0,0,1.17,1.87A5,5,0,0,0,24,21a4.69,4.69,0,0,0,1.8-.34,1,1,0,0,1,1.34,1.17A5.13,5.13,0,0,0,27,23a5,5,0,0,0,9.72,1.65,1,1,0,0,1,.62-.62A1.19,1.19,0,0,1,37.66,24Z"/><path d="M18,47H10a3,3,0,0,1-3-3V32a3,3,0,0,1,3-3h8a1,1,0,0,1,1,1V46A1,1,0,0,1,18,47ZM10,31a1,1,0,0,0-1,1V44a1,1,0,0,0,1,1h7V31Z"/><path d="M36,54a4,4,0,0,1-4-4V42a4,4,0,0,1,8,0v8A4,4,0,0,1,36,54Zm0-14a2,2,0,0,0-2,2v8a2,2,0,0,0,4,0V42A2,2,0,0,0,36,40Z"/><path d="M46,54a4,4,0,0,1-4-4V42a4,4,0,0,1,8,0v8A4,4,0,0,1,46,54Zm0-14a2,2,0,0,0-2,2v8a2,2,0,0,0,4,0V42A2,2,0,0,0,46,40Z"/><path d="M26,54a4,4,0,0,1-4-4V42a4,4,0,0,1,8,0v8A4,4,0,0,1,26,54Zm0-14a2,2,0,0,0-2,2v8a2,2,0,0,0,4,0V42A2,2,0,0,0,26,40Z"/></svg>