<?xml version="1.0" encoding="UTF-8" standalone="no"?> <svg xmlns="http://www.w3.org/2000/svg" viewBox="0 0 32 32"><title>fermentation</title><g id="fermentation"><path d="M30,21V14a1,1,0,0,0-2,0v5.48l-3.9-1.67a5,5,0,0,0-4.21.13l-2,1a3,3,0,0,1-3.26-.38L13,17.21A5,5,0,0,0,6.91,17L4,19.06V14a1,1,0,0,0-2,0V27a3,3,0,0,0,3,3H27a3,3,0,0,0,3-3V21Zm-3,7H5a1,1,0,0,1-1-1V21.51l4.07-2.9a3,3,0,0,1,3.66.14l1.62,1.34a5,5,0,0,0,5.44.63l2-1a3,3,0,0,1,2.52-.07l4.69,2V27A1,1,0,0,1,27,28Z"/><path d="M12.12,21.38h0a3.81,3.81,0,0,0-2.26-1.12,2.72,2.72,0,0,0-3.1,3.1,3.95,3.95,0,0,0,3.38,3.38,2.11,2.11,0,0,0,.35,0,2.8,2.8,0,0,0,2-.78,2.83,2.83,0,0,0,.77-2.34A3.81,3.81,0,0,0,12.12,21.38Zm-1.06,3.18a.91.91,0,0,1-.7.2,2,2,0,0,1-1.62-1.62.91.91,0,0,1,.2-.7.75.75,0,0,1,.56-.2h.14a2,2,0,0,1,1.07.55h0a2,2,0,0,1,.55,1.07A.91.91,0,0,1,11.06,24.56Z"/><path d="M22.5,15.76a3.76,3.76,0,0,0,2.62-1.14h0a3.81,3.81,0,0,0,1.12-2.26A2.8,2.8,0,0,0,25.47,10a3.27,3.27,0,0,0-4.59.35,3.81,3.81,0,0,0-1.12,2.26A2.8,2.8,0,0,0,20.53,15,2.72,2.72,0,0,0,22.5,15.76Zm-.76-2.9a2,2,0,0,1,1.62-1.62h.14a.75.75,0,0,1,.56.2.87.87,0,0,1,.2.7,2,2,0,0,1-.55,1.07h0a2,2,0,0,1-1.07.55.91.91,0,0,1-.7-.2A.87.87,0,0,1,21.74,12.86Z"/><path d="M12,14A6,6,0,1,0,6,8,6,6,0,0,0,12,14ZM12,4A4,4,0,1,1,8,8,4,4,0,0,1,12,4Z"/><path d="M12,9h2a1,1,0,0,0,0-2H13V6a1,1,0,0,0-2,0V8A1,1,0,0,0,12,9Z"/></g></svg>