<?xml version="1.0" encoding="UTF-8"?>
<!DOCTYPE svg PUBLIC "-//W3C//DTD SVG 1.1//EN" "http://www.w3.org/Graphics/SVG/1.1/DTD/svg11.dtd">
<!-- Creator: CorelDRAW 2019 (64-Bit) -->
<svg xmlns="http://www.w3.org/2000/svg" xml:space="preserve" width="400px" height="400px" version="1.1" style="shape-rendering:geometricPrecision; text-rendering:geometricPrecision; image-rendering:optimizeQuality; fill-rule:evenodd; clip-rule:evenodd"
viewBox="0 0 400 400"
 xmlns:xlink="http://www.w3.org/1999/xlink">
 <defs>
  <style type="text/css">
   <![CDATA[
    .fil0 {fill:white}
    .fil1 {fill:#1A1A1A;fill-rule:nonzero}
   ]]>
  </style>
 </defs>
 <g id="Layer_x0020_1">
  <metadata id="CorelCorpID_0Corel-Layer"/>
  <rect class="fil0" width="400" height="400"/>
  <path class="fil1" d="M312.07 113.14c0,5.02 -4.07,9.09 -9.09,9.09l-203.65 0c-5.02,0 -9.09,-4.07 -9.09,-9.09l0 -40.74c0,-5.02 4.07,-9.09 9.09,-9.09l203.65 0c5.02,0 9.09,4.07 9.09,9.09l0 40.74zm0 77.26c0,5.03 -4.07,9.09 -9.09,9.09l-37.28 0c-5.02,0 -9.09,-4.06 -9.09,-9.09l0 -21.02c0,-5.03 4.07,-9.1 9.09,-9.1l37.28 0c5.02,0 9.09,4.07 9.09,9.1l0 21.02zm0 134.75c0,5.02 -4.07,9.09 -9.09,9.09l-37.28 0c-5.02,0 -9.09,-4.07 -9.09,-9.09l0 -88.4c0,-5.02 4.07,-9.09 9.09,-9.09l37.28 0c5.02,0 9.09,4.07 9.09,9.09l0 88.4zm-84.34 -134.75c0,5.03 -4.07,9.09 -9.09,9.09l-37.28 0c-5.02,0 -9.09,-4.06 -9.09,-9.09l0 -21.02c0,-5.03 4.07,-9.1 9.09,-9.1l37.28 0c5.02,0 9.09,4.07 9.09,9.1l0 21.02zm0 67.38c0,5.02 -4.07,9.09 -9.09,9.09l-37.28 0c-5.02,0 -9.09,-4.07 -9.09,-9.09l0 -21.03c0,-5.02 4.07,-9.09 9.09,-9.09l37.28 0c5.02,0 9.09,4.07 9.09,9.09l0 21.03zm0 67.37c0,5.02 -4.07,9.09 -9.09,9.09l-37.28 0c-5.02,0 -9.09,-4.07 -9.09,-9.09l0 -21.03c0,-5.02 4.07,-9.09 9.09,-9.09l37.28 0c5.02,0 9.09,4.07 9.09,9.09l0 21.03zm-82.03 -134.75c0,5.03 -4.07,9.09 -9.09,9.09l-37.28 0c-5.02,0 -9.09,-4.06 -9.09,-9.09l0 -21.02c0,-5.03 4.07,-9.1 9.09,-9.1l37.28 0c5.02,0 9.09,4.07 9.09,9.1l0 21.02zm0 67.38c0,5.02 -4.07,9.09 -9.09,9.09l-37.28 0c-5.02,0 -9.09,-4.07 -9.09,-9.09l0 -21.03c0,-5.02 4.07,-9.09 9.09,-9.09l37.28 0c5.02,0 9.09,4.07 9.09,9.09l0 21.03zm0 67.37c0,5.02 -4.07,9.09 -9.09,9.09l-37.28 0c-5.02,0 -9.09,-4.07 -9.09,-9.09l0 -21.03c0,-5.02 4.07,-9.09 9.09,-9.09l37.28 0c5.02,0 9.09,4.07 9.09,9.09l0 21.03zm177.28 -295.78l-245.96 0c-12.48,0 -22.6,10.11 -22.6,22.59l0 296.08c0,12.48 10.12,22.59 22.6,22.59l245.96 0c12.48,0 22.6,-10.11 22.6,-22.59l0 -296.08c0,-12.48 -10.12,-22.59 -22.6,-22.59z"/>
 </g>
</svg>
